<?xml version="1.0" standalone="no"?><!DOCTYPE svg PUBLIC "-//W3C//DTD SVG 1.1//EN" "http://www.w3.org/Graphics/SVG/1.1/DTD/svg11.dtd"><svg t="1600249518901" class="icon" viewBox="0 0 1836 1024" version="1.1" xmlns="http://www.w3.org/2000/svg" p-id="22254" xmlns:xlink="http://www.w3.org/1999/xlink" width="358.59375" height="200"><defs><style type="text/css"></style></defs><path d="M1404.269 328.559c-17.416-17.416-25.157-40.637-23.705-63.375l-29.027-29.027s-177.547-203.671-384.766-85.468l9.676 12.256 77.405-11.933-63.698 29.027 11.933 14.997c85.951-13.062 241.083 48.862 189.964 113.043l-151.1 151.1-0.323-0.323c-10.482 9.998-22.899 16.61-35.961 19.835l-407.342 372.188 127.557 127.557 371.22-406.536c3.386-14.191 10.643-27.737 21.609-38.702 1.451-1.451 2.903-2.741 4.354-3.87l162.066-162.066c20.803 0 43.056 6.45 59.021 22.415 16.61 16.61 24.35 38.541 23.705 60.311l48.055 47.894 99.175-99.175-46.604-46.604c-22.738 1.613-45.959-6.289-63.214-23.544z" p-id="22255"></path></svg>